<svg width="820" height="220" viewBox="0 0 820 220" fill="none" xmlns="http://www.w3.org/2000/svg">
  <rect width="820" height="220" rx="36" fill="#09080C"/>
  <rect x="1" y="1" width="818" height="218" rx="35" stroke="rgba(255,255,255,0.08)"/>
  <g transform="translate(24 18)">
    <rect width="184" height="184" rx="44" fill="#0B0A10"/>
    <circle cx="92" cy="92" r="56" stroke="url(#paint0_linear_0_1)" stroke-width="10" stroke-dasharray="124 42 26 18"/>
    <path d="M93 24C108 43 115 63 113 83C111 100 103 119 89 149" stroke="url(#paint1_linear_0_1)" stroke-width="9" stroke-linecap="round"/>
    <path d="M78 58L103 102" stroke="#F2EADF" stroke-opacity="0.78" stroke-width="3.4" stroke-linecap="round"/>
    <circle cx="138" cy="59" r="4.4" fill="#7FD6D9"/>
    <circle cx="55" cy="136" r="3.8" fill="#FF6A5E"/>
  </g>
  <g transform="translate(242 0)">
    <text x="0" y="88" fill="#B9B0A7" font-size="16" font-family="'Familjen Grotesk', sans-serif" letter-spacing="5">CINEMATIC WATCH GUIDE</text>
    <text x="0" y="144" fill="#F2EADF" font-size="74" font-family="'Cormorant Garamond', serif">Euphoria Season 3</text>
    <line x1="0" y1="176" x2="504" y2="176" stroke="url(#paint2_linear_0_1)" stroke-opacity="0.6"/>
    <text x="0" y="202" fill="#B9B0A7" font-size="18" font-family="'Familjen Grotesk', sans-serif">
      Release date, cast, schedule, and clearly labeled rumor watch
    </text>
  </g>
  <defs>
    <linearGradient id="paint0_linear_0_1" x1="48" y1="41" x2="146" y2="145" gradientUnits="userSpaceOnUse">
      <stop stop-color="#7FD6D9"/>
      <stop offset="0.56" stop-color="#F2EADF"/>
      <stop offset="1" stop-color="#FF6A5E"/>
    </linearGradient>
    <linearGradient id="paint1_linear_0_1" x1="100" y1="24" x2="84" y2="149" gradientUnits="userSpaceOnUse">
      <stop stop-color="#F2EADF"/>
      <stop offset="1" stop-color="#FF6A5E"/>
    </linearGradient>
    <linearGradient id="paint2_linear_0_1" x1="0" y1="176" x2="504" y2="176" gradientUnits="userSpaceOnUse">
      <stop stop-color="#7FD6D9"/>
      <stop offset="1" stop-color="#FF6A5E" stop-opacity="0"/>
    </linearGradient>
  </defs>
</svg>

